<svg width="45" height="50" viewBox="0 0 50" fill="none" xmlns="http://www.w3.org/2000/svg">
<g style="mix-blend-mode:multiply">
<path d="M6.336 31V13.464H10.4V21.016H10.112C10.112 19.224 10.336 17.7307 10.784 16.536C11.232 15.3413 11.904 14.4453 12.8 13.848C13.696 13.2293 14.7947 12.92 16.096 12.92H16.32C17.6427 12.92 18.7413 13.2293 19.616 13.848C20.512 14.4453 21.184 15.3413 21.632 16.536C22.1013 17.7307 22.336 19.224 22.336 21.016H21.088C21.088 19.224 21.312 17.7307 21.76 16.536C22.2293 15.3413 22.912 14.4453 23.808 13.848C24.704 13.2293 25.8027 12.92 27.104 12.92H27.328C28.6507 12.92 29.76 13.2293 30.656 13.848C31.5733 14.4453 32.2667 15.3413 32.736 16.536C33.2053 17.7307 33.44 19.224 33.44 21.016V31H28.32V20.728C28.32 19.768 28.064 18.9893 27.552 18.392C27.0613 17.7947 26.3573 17.496 25.44 17.496C24.5227 17.496 23.7973 17.8053 23.264 18.424C22.7307 19.0213 22.464 19.8213 22.464 20.824V31H17.312V20.728C17.312 19.768 17.056 18.9893 16.544 18.392C16.0533 17.7947 15.36 17.496 14.464 17.496C13.5253 17.496 12.7893 17.8053 12.256 18.424C11.7227 19.0213 11.456 19.8213 11.456 20.824V31H6.336Z" fill="#00FFFF"/>
</g>
<g style="mix-blend-mode:multiply">
<path d="M7.336 32V14.464H11.4V22.016H11.112C11.112 20.224 11.336 18.7307 11.784 17.536C12.232 16.3413 12.904 15.4453 13.8 14.848C14.696 14.2293 15.7947 13.92 17.096 13.92H17.32C18.6427 13.92 19.7413 14.2293 20.616 14.848C21.512 15.4453 22.184 16.3413 22.632 17.536C23.1013 18.7307 23.336 20.224 23.336 22.016H22.088C22.088 20.224 22.312 18.7307 22.76 17.536C23.2293 16.3413 23.912 15.4453 24.808 14.848C25.704 14.2293 26.8027 13.92 28.104 13.92H28.328C29.6507 13.92 30.76 14.2293 31.656 14.848C32.5733 15.4453 33.2667 16.3413 33.736 17.536C34.2053 18.7307 34.44 20.224 34.44 22.016V32H29.32V21.728C29.32 20.768 29.064 19.9893 28.552 19.392C28.0613 18.7947 27.3573 18.496 26.44 18.496C25.5227 18.496 24.7973 18.8053 24.264 19.424C23.7307 20.0213 23.464 20.8213 23.464 21.824V32H18.312V21.728C18.312 20.768 18.056 19.9893 17.544 19.392C17.0533 18.7947 16.36 18.496 15.464 18.496C14.5253 18.496 13.7893 18.8053 13.256 19.424C12.7227 20.0213 12.456 20.8213 12.456 21.824V32H7.336Z" fill="#FF0000"/>
</g>
</svg>
