<svg width="56" height="42" viewBox="0 0 56 42" fill="none" xmlns="http://www.w3.org/2000/svg">
<path d="M0 7C0 4.23858 2.23858 2 5 2H51C53.7614 2 56 4.23858 56 7V37C56 39.7614 53.7614 42 51 42H5C2.23858 42 0 39.7614 0 37V7Z" fill="white"/>
<g style="mix-blend-mode:multiply">
<path d="M3.336 31V13.464H7.4V21.016H7.112C7.112 19.224 7.336 17.7307 7.784 16.536C8.232 15.3413 8.904 14.4453 9.8 13.848C10.696 13.2293 11.7947 12.92 13.096 12.92H13.32C14.6427 12.92 15.7413 13.2293 16.616 13.848C17.512 14.4453 18.184 15.3413 18.632 16.536C19.1013 17.7307 19.336 19.224 19.336 21.016H18.088C18.088 19.224 18.312 17.7307 18.76 16.536C19.2293 15.3413 19.912 14.4453 20.808 13.848C21.704 13.2293 22.8027 12.92 24.104 12.92H24.328C25.6507 12.92 26.76 13.2293 27.656 13.848C28.5733 14.4453 29.2667 15.3413 29.736 16.536C30.2053 17.7307 30.44 19.224 30.44 21.016V31H25.32V20.728C25.32 19.768 25.064 18.9893 24.552 18.392C24.0613 17.7947 23.3573 17.496 22.44 17.496C21.5227 17.496 20.7973 17.8053 20.264 18.424C19.7307 19.0213 19.464 19.8213 19.464 20.824V31H14.312V20.728C14.312 19.768 14.056 18.9893 13.544 18.392C13.0533 17.7947 12.36 17.496 11.464 17.496C10.5253 17.496 9.78933 17.8053 9.256 18.424C8.72267 19.0213 8.456 19.8213 8.456 20.824V31H3.336ZM34.4878 37.944V33.592H38.1358C38.6904 33.592 39.1598 33.5173 39.5438 33.368C39.9278 33.24 40.2371 33.016 40.4718 32.696C40.7064 32.376 40.8984 31.9387 41.0478 31.384L45.3678 13.464H50.2318L45.3358 32.408C44.9944 33.7733 44.5144 34.8613 43.8958 35.672C43.2984 36.4827 42.4878 37.0587 41.4638 37.4C40.4611 37.7627 39.1811 37.944 37.6238 37.944H34.4878ZM39.9918 30.616V26.616H43.7038V30.616H39.9918ZM37.8798 30.616L32.5038 13.464H37.6558L42.7438 30.616H37.8798Z" fill="#00FFFF"/>
</g>
<g style="mix-blend-mode:multiply">
<path d="M5.336 33V15.464H9.4V23.016H9.112C9.112 21.224 9.336 19.7307 9.784 18.536C10.232 17.3413 10.904 16.4453 11.8 15.848C12.696 15.2293 13.7947 14.92 15.096 14.92H15.32C16.6427 14.92 17.7413 15.2293 18.616 15.848C19.512 16.4453 20.184 17.3413 20.632 18.536C21.1013 19.7307 21.336 21.224 21.336 23.016H20.088C20.088 21.224 20.312 19.7307 20.76 18.536C21.2293 17.3413 21.912 16.4453 22.808 15.848C23.704 15.2293 24.8027 14.92 26.104 14.92H26.328C27.6507 14.92 28.76 15.2293 29.656 15.848C30.5733 16.4453 31.2667 17.3413 31.736 18.536C32.2053 19.7307 32.44 21.224 32.44 23.016V33H27.32V22.728C27.32 21.768 27.064 20.9893 26.552 20.392C26.0613 19.7947 25.3573 19.496 24.44 19.496C23.5227 19.496 22.7973 19.8053 22.264 20.424C21.7307 21.0213 21.464 21.8213 21.464 22.824V33H16.312V22.728C16.312 21.768 16.056 20.9893 15.544 20.392C15.0533 19.7947 14.36 19.496 13.464 19.496C12.5253 19.496 11.7893 19.8053 11.256 20.424C10.7227 21.0213 10.456 21.8213 10.456 22.824V33H5.336ZM36.4878 39.944V35.592H40.1358C40.6904 35.592 41.1598 35.5173 41.5438 35.368C41.9278 35.24 42.2371 35.016 42.4718 34.696C42.7064 34.376 42.8984 33.9387 43.0478 33.384L47.3678 15.464H52.2318L47.3358 34.408C46.9944 35.7733 46.5144 36.8613 45.8958 37.672C45.2984 38.4827 44.4878 39.0587 43.4638 39.4C42.4611 39.7627 41.1811 39.944 39.6238 39.944H36.4878ZM41.9918 32.616V28.616H45.7038V32.616H41.9918ZM39.8798 32.616L34.5038 15.464H39.6558L44.7438 32.616H39.8798Z" fill="#FF0000"/>
</g>
</svg>
